<svg xmlns="http://www.w3.org/2000/svg" fill="none" viewBox="0 0 23 23" height="23" width="23">
<path fill="white" d="M14.0259 11.114L21.7301 3.20814C22.0674 2.86113 22.257 2.39047 22.257 1.89971C22.257 1.40896 22.0674 0.938302 21.7301 0.591285C21.3927 0.244269 20.9351 0.0493164 20.458 0.0493164C19.9809 0.0493164 19.5233 0.244269 19.1859 0.591285L11.4996 8.51557L3.8134 0.591285C3.47602 0.244269 3.01844 0.0493164 2.54131 0.0493164C2.06419 0.0493164 1.60661 0.244269 1.26923 0.591285C0.931852 0.938302 0.742315 1.40896 0.742315 1.89971C0.742315 2.39047 0.931852 2.86113 1.26923 3.20814L8.9734 11.114L1.26923 19.0199C1.1013 19.1912 0.96801 19.395 0.87705 19.6196C0.786089 19.8441 0.739258 20.085 0.739258 20.3283C0.739258 20.5716 0.786089 20.8124 0.87705 21.037C0.96801 21.2616 1.1013 21.4654 1.26923 21.6367C1.43579 21.8094 1.63395 21.9465 1.85228 22.0401C2.07061 22.1337 2.30479 22.1818 2.54131 22.1818C2.77783 22.1818 3.01202 22.1337 3.23035 22.0401C3.44868 21.9465 3.64684 21.8094 3.8134 21.6367L11.4996 13.7124L19.1859 21.6367C19.3525 21.8094 19.5506 21.9465 19.7689 22.0401C19.9873 22.1337 20.2215 22.1818 20.458 22.1818C20.6945 22.1818 20.9287 22.1337 21.147 22.0401C21.3653 21.9465 21.5635 21.8094 21.7301 21.6367C21.898 21.4654 22.0313 21.2616 22.1222 21.037C22.2132 20.8124 22.26 20.5716 22.26 20.3283C22.26 20.085 22.2132 19.8441 22.1222 19.6196C22.0313 19.395 21.898 19.1912 21.7301 19.0199L14.0259 11.114Z"></path>
</svg>
