<svg xmlns="http://www.w3.org/2000/svg" fill="none" viewBox="0 0 20 21" height="21" width="20">
<path fill="white" d="M11.0276 0.709238C11.7573 0.706438 12.4871 0.713772 13.2166 0.731238L13.4106 0.738238C13.6346 0.746238 13.8556 0.756238 14.1226 0.768238C15.1866 0.818238 15.9126 0.986238 16.5496 1.23324C17.2096 1.48724 17.7656 1.83124 18.3216 2.38724C18.83 2.88684 19.2234 3.49118 19.4746 4.15824C19.7216 4.79524 19.8896 5.52224 19.9396 6.58624C19.9516 6.85224 19.9616 7.07424 19.9696 7.29824L19.9756 7.49224C19.9934 8.22143 20.001 8.95083 19.9986 9.68024L19.9996 10.4262V11.7362C20.0021 12.466 19.9944 13.1957 19.9766 13.9252L19.9706 14.1192C19.9626 14.3432 19.9526 14.5642 19.9406 14.8312C19.8906 15.8952 19.7206 16.6212 19.4746 17.2582C19.2242 17.926 18.8307 18.5308 18.3216 19.0302C17.8216 19.5386 17.2169 19.932 16.5496 20.1832C15.9126 20.4302 15.1866 20.5982 14.1226 20.6482C13.8556 20.6602 13.6346 20.6702 13.4106 20.6782L13.2166 20.6842C12.4871 20.702 11.7573 20.7097 11.0276 20.7072L10.2816 20.7082H8.9726C8.24286 20.7107 7.51313 20.703 6.7836 20.6852L6.5896 20.6792C6.35221 20.6706 6.11487 20.6606 5.8776 20.6492C4.8136 20.5992 4.0876 20.4292 3.4496 20.1832C2.78228 19.9326 2.17784 19.5391 1.6786 19.0302C1.16965 18.5305 0.775825 17.9258 0.524601 17.2582C0.277601 16.6212 0.1096 15.8952 0.0596004 14.8312C0.0484633 14.594 0.0384632 14.3566 0.0296004 14.1192L0.0246005 13.9252C0.00616412 13.1957 -0.00217011 12.466 -0.000399562 11.7362V9.68024C-0.00319053 8.95084 0.00414359 8.22144 0.0216005 7.49224L0.0286005 7.29824C0.0366005 7.07424 0.0466005 6.85224 0.0586005 6.58624C0.1086 5.52124 0.2766 4.79624 0.5236 4.15824C0.774973 3.49086 1.16956 2.88668 1.6796 2.38824C2.17849 1.87899 2.78256 1.48481 3.4496 1.23324C4.0876 0.986238 4.8126 0.818238 5.8776 0.768238L6.5896 0.738238L6.7836 0.733238C7.51278 0.714811 8.24219 0.706477 8.9716 0.708238L11.0276 0.709238ZM9.9996 5.70924C9.33711 5.69987 8.67936 5.82226 8.06458 6.06931C7.4498 6.31635 6.89025 6.68312 6.41845 7.14829C5.94664 7.61347 5.572 8.16778 5.31629 8.779C5.06057 9.39023 4.92889 10.0462 4.92889 10.7087C4.92889 11.3713 5.06057 12.0273 5.31629 12.6385C5.572 13.2497 5.94664 13.804 6.41845 14.2692C6.89025 14.7344 7.4498 15.1011 8.06458 15.3482C8.67936 15.5952 9.33711 15.7176 9.9996 15.7082C11.3257 15.7082 12.5975 15.1815 13.5351 14.2438C14.4728 13.3061 14.9996 12.0343 14.9996 10.7082C14.9996 9.38216 14.4728 8.11039 13.5351 7.1727C12.5975 6.23502 11.3257 5.70924 9.9996 5.70924ZM9.9996 7.70924C10.3981 7.7019 10.7941 7.77404 11.1644 7.92145C11.5347 8.06886 11.8719 8.28858 12.1564 8.56778C12.4408 8.84699 12.6668 9.18007 12.821 9.54758C12.9753 9.91509 13.0548 10.3097 13.0549 10.7082C13.0549 11.1068 12.9756 11.5014 12.8214 11.869C12.6673 12.2365 12.4414 12.5697 12.1571 12.849C11.8727 13.1283 11.5356 13.3481 11.1653 13.4956C10.7951 13.6432 10.3991 13.7154 10.0006 13.7082C9.20495 13.7082 8.44189 13.3922 7.87928 12.8296C7.31667 12.267 7.0006 11.5039 7.0006 10.7082C7.0006 9.91259 7.31667 9.14953 7.87928 8.58692C8.44189 8.02431 9.20495 7.70824 10.0006 7.70824L9.9996 7.70924ZM15.2496 4.20924C14.927 4.22215 14.6219 4.35939 14.3982 4.59221C14.1745 4.82503 14.0496 5.13537 14.0496 5.45824C14.0496 5.7811 14.1745 6.09145 14.3982 6.32427C14.6219 6.55709 14.927 6.69433 15.2496 6.70724C15.5811 6.70724 15.8991 6.57554 16.1335 6.34112C16.3679 6.1067 16.4996 5.78876 16.4996 5.45724C16.4996 5.12572 16.3679 4.80778 16.1335 4.57335C15.8991 4.33893 15.5811 4.20724 15.2496 4.20724V4.20924Z"></path>
</svg>
