<svg xmlns="http://www.w3.org/2000/svg" fill="none" viewBox="0 0 20 21" height="21" width="20">
<path fill="white" d="M10.001 0.708008C15.524 0.708008 20.001 5.18501 20.001 10.708C20.001 16.231 15.524 20.708 10.001 20.708C8.23377 20.7109 6.49765 20.2432 4.97099 19.353L0.00499063 20.708L1.35699 15.74C0.466084 14.2129 -0.00196181 12.476 0.000990443 10.708C0.000990443 5.18501 4.47799 0.708008 10.001 0.708008ZM6.59299 6.00801L6.39299 6.01601C6.26351 6.02389 6.13697 6.05791 6.02099 6.11601C5.91251 6.17744 5.81349 6.25423 5.72699 6.34401C5.60699 6.45701 5.53899 6.55501 5.46599 6.65001C5.09611 7.13091 4.89696 7.72132 4.89999 8.32801C4.90199 8.81801 5.02999 9.29501 5.22999 9.74101C5.63899 10.643 6.31199 11.598 7.19999 12.483C7.41399 12.696 7.62399 12.91 7.84999 13.109C8.95338 14.0805 10.2682 14.781 11.69 15.155L12.258 15.242C12.443 15.252 12.628 15.238 12.814 15.229C13.1052 15.214 13.3896 15.1351 13.647 14.998C13.7779 14.9306 13.9057 14.8571 14.03 14.778C14.03 14.778 14.073 14.75 14.155 14.688C14.29 14.588 14.373 14.517 14.485 14.4C14.568 14.314 14.64 14.213 14.695 14.098C14.773 13.935 14.851 13.624 14.883 13.365C14.907 13.167 14.9 13.059 14.897 12.992C14.893 12.885 14.804 12.774 14.707 12.727L14.125 12.466C14.125 12.466 13.255 12.087 12.723 11.845C12.6673 11.8207 12.6077 11.8068 12.547 11.804C12.4786 11.797 12.4094 11.8047 12.3442 11.8266C12.279 11.8485 12.2193 11.8841 12.169 11.931C12.164 11.929 12.097 11.986 11.374 12.862C11.3325 12.9178 11.2753 12.9599 11.2098 12.9831C11.1443 13.0062 11.0733 13.0093 11.006 12.992C10.9408 12.9745 10.877 12.9525 10.815 12.926C10.691 12.874 10.648 12.854 10.563 12.818C9.98906 12.5676 9.45768 12.2292 8.98799 11.815C8.86199 11.705 8.74499 11.585 8.62499 11.469C8.23158 11.0922 7.88871 10.666 7.60499 10.201L7.54599 10.106C7.50361 10.0422 7.46935 9.97331 7.44399 9.90101C7.40599 9.75401 7.50499 9.63601 7.50499 9.63601C7.50499 9.63601 7.74799 9.37001 7.86099 9.22601C7.97099 9.08601 8.06399 8.95001 8.12399 8.85301C8.24199 8.66301 8.27899 8.46801 8.21699 8.31701C7.93699 7.63301 7.64699 6.95201 7.34899 6.27601C7.28999 6.14201 7.11499 6.04601 6.95599 6.02701C6.90199 6.02101 6.84799 6.01501 6.79399 6.01101C6.6597 6.00434 6.52513 6.00567 6.39099 6.01501L6.59199 6.00701L6.59299 6.00801Z"></path>
</svg>
